<svg width="160" height="160" viewBox="0 0 160 160" fill="none" xmlns="http://www.w3.org/2000/svg">
  <title>Daily Marathon</title>
  <defs>
    <linearGradient id="paint0_linear_daily" x1="28" y1="24" x2="132" y2="140" gradientUnits="userSpaceOnUse">
      <stop stop-color="#FF8F70"/>
      <stop offset="1" stop-color="#FF3F81"/>
    </linearGradient>
    <linearGradient id="paint1_linear_daily" x1="80" y1="44" x2="80" y2="120" gradientUnits="userSpaceOnUse">
      <stop stop-color="#FFE8E0"/>
      <stop offset="1" stop-color="#FFD0C2"/>
    </linearGradient>
    <radialGradient id="glow_daily" cx="0" cy="0" r="1" gradientUnits="userSpaceOnUse" gradientTransform="translate(80 84) rotate(90) scale(44)">
      <stop stop-color="#FFFFFF" stop-opacity="0.85"/>
      <stop offset="1" stop-color="#FF9DB4" stop-opacity="0"/>
    </radialGradient>
  </defs>
  <rect x="16" y="16" width="128" height="128" rx="32" fill="url(#paint0_linear_daily)"/>
  <rect x="16" y="16" width="128" height="128" rx="32" stroke="rgba(255,255,255,0.4)" stroke-width="2"/>
  <g transform="translate(0,-4)">
    <!-- Card body -->
    <rect x="32" y="40" width="96" height="88" rx="18" fill="url(#paint1_linear_daily)"/>
    <!-- Clock face glow -->
    <circle cx="80" cy="84" r="44" fill="url(#glow_daily)"/>
    <!-- Clock face -->
    <circle cx="80" cy="84" r="26" fill="#FFFFFF"/>
    <circle cx="80" cy="84" r="26" stroke="#FF7A91" stroke-width="4" fill="none"/>
    <!-- Marks -->
    <path d="M80 58v6" stroke="#FF7A91" stroke-width="3" stroke-linecap="round"/>
    <path d="M80 104v6" stroke="#FFB2C1" stroke-width="3" stroke-linecap="round"/>
    <path d="M106 84h-6" stroke="#FF7A91" stroke-width="3" stroke-linecap="round"/>
    <path d="M54 84h-6" stroke="#FFB2C1" stroke-width="3" stroke-linecap="round"/>
    <!-- Hands: 8-hour indicator -->
    <path d="M80 72v12l12 6" stroke="#FF3F81" stroke-width="4" stroke-linecap="round" stroke-linejoin="round"/>
    <!-- Footer ticks -->
    <path d="M64 112h8" stroke="#FFC5D1" stroke-width="3" stroke-linecap="round"/>
    <path d="M88 112h8" stroke="#FFC5D1" stroke-width="3" stroke-linecap="round"/>
  </g>
</svg>
