<svg width="160" height="160" viewBox="0 0 160 160" fill="none" xmlns="http://www.w3.org/2000/svg">
	<defs>
		<linearGradient id="paint0_linear_early" x1="32" y1="24" x2="128" y2="144" gradientUnits="userSpaceOnUse">
			<stop stop-color="#71D9FF" />
			<stop offset="1" stop-color="#0072FF" />
		</linearGradient>
		<linearGradient id="paint1_linear_early" x1="80" y1="64" x2="80" y2="118" gradientUnits="userSpaceOnUse">
			<stop stop-color="#FFEFD6" />
			<stop offset="1" stop-color="#FFD27A" />
		</linearGradient>
		<radialGradient id="paint2_radial_early" cx="0" cy="0" r="1" gradientUnits="userSpaceOnUse" gradientTransform="translate(80 92) rotate(90) scale(32)">
			<stop stop-color="#FFEAA7" />
			<stop offset="1" stop-color="#FFB347" stop-opacity="0" />
		</radialGradient>
	</defs>
	<rect x="16" y="16" width="128" height="128" rx="32" fill="url(#paint0_linear_early)" />
	<rect x="16" y="16" width="128" height="128" rx="32" stroke="rgba(255,255,255,0.4)" stroke-width="2" />
	<g transform="translate(0,-1)">
		<path d="M112 116C112 93.9086 96.0914 78 74 78C51.9086 78 36 93.9086 36 116" fill="#F4FBFF" />
		<path d="M120 116C120 85.4903 95.5097 61 65 61C34.4903 61 10 85.4903 10 116" stroke="rgba(255,255,255,0.3)" stroke-width="6" stroke-linecap="round" />
		<path d="M132 116C132 77.5796 100.42 46 62 46C23.5796 46 -8 77.5796 -8 116" stroke="rgba(255,255,255,0.12)" stroke-width="6" stroke-linecap="round" />
		<circle cx="80" cy="92" r="32" fill="url(#paint1_linear_early)" />
		<circle cx="80" cy="92" r="32" fill="url(#paint2_radial_early)" />
		<path d="M80 64V72" stroke="#FF9D3F" stroke-width="6" stroke-linecap="round" />
		<path d="M100.284 71.716L94.6287 77.3714" stroke="#FF9D3F" stroke-width="6" stroke-linecap="round" />
		<path d="M59.7157 71.716L65.3713 77.3714" stroke="#FF9D3F" stroke-width="6" stroke-linecap="round" />
		<path d="M104 92H56" stroke="#F89A42" stroke-width="6" stroke-linecap="round" />
		<path d="M68 104C71.3137 104 74 101.314 74 98C74 94.6863 71.3137 92 68 92C64.6863 92 62 94.6863 62 98C62 101.314 64.6863 104 68 104Z" fill="#FFFFFF" />
		<path d="M92 104C95.3137 104 98 101.314 98 98C98 94.6863 95.3137 92 92 92C88.6863 92 86 94.6863 86 98C86 101.314 88.6863 104 92 104Z" fill="#FFFFFF" />
		<path d="M80 110C87.732 110 94 103.732 94 96H66C66 103.732 72.268 110 80 110Z" fill="#FEECCB" />
	</g>
</svg>
