<svg width="160" height="160" viewBox="0 0 160 160" fill="none" xmlns="http://www.w3.org/2000/svg">
	<defs>
		<linearGradient id="paint0_linear_lang10" x1="28" y1="20" x2="132" y2="144" gradientUnits="userSpaceOnUse">
			<stop stop-color="#4DD7A5" />
			<stop offset="1" stop-color="#118C87" />
		</linearGradient>
		<linearGradient id="paint1_linear_lang10" x1="80" y1="50" x2="80" y2="126" gradientUnits="userSpaceOnUse">
			<stop stop-color="#EFFFF8" />
			<stop offset="1" stop-color="#C4E9DC" />
		</linearGradient>
		<radialGradient id="paint2_radial_lang10" cx="0" cy="0" r="1" gradientUnits="userSpaceOnUse" gradientTransform="translate(80 88) rotate(90) scale(34)">
			<stop stop-color="#FFFFFF" stop-opacity="0.9" />
			<stop offset="1" stop-color="#A3E4D0" stop-opacity="0" />
		</radialGradient>
	</defs>
	<rect x="16" y="16" width="128" height="128" rx="32" fill="url(#paint0_linear_lang10)" />
	<rect x="16" y="16" width="128" height="128" rx="32" stroke="rgba(255,255,255,0.4)" stroke-width="2" />
	<g transform="translate(0,-8)">
		<circle cx="80" cy="88" r="38" fill="url(#paint1_linear_lang10)" />
		<circle cx="80" cy="88" r="34" fill="url(#paint2_radial_lang10)" />
		<circle cx="80" cy="88" r="28" fill="#32CFA1" opacity="0.2" />
		<path d="M80 58C101.539 58 119 75.461 119 97" stroke="#1DA58F" stroke-width="5" stroke-linecap="round" />
		<path d="M80 58C58.461 58 41 75.461 41 97" stroke="#84E2CA" stroke-width="5" stroke-linecap="round" />
		<path d="M54 112C62.6274 121.333 70.8319 126 80 126C89.1681 126 97.3726 121.333 106 112" stroke="#1DA58F" stroke-width="5" stroke-linecap="round" />
		<circle cx="54" cy="92" r="5" fill="#E6FFF3" />
		<circle cx="106" cy="92" r="5" fill="#E6FFF3" />
		<circle cx="64" cy="112" r="4" fill="#B5F0DA" />
		<circle cx="96" cy="112" r="4" fill="#B5F0DA" />
		<text x="80" y="95" text-anchor="middle" dominant-baseline="middle" font-family="'Inter', 'Segoe UI', sans-serif" font-size="40" font-weight="700" letter-spacing="1" fill="#0F5C54" opacity="0.35">10</text>
		<text x="80" y="94" text-anchor="middle" dominant-baseline="middle" font-family="'Inter', 'Segoe UI', sans-serif" font-size="40" font-weight="700" letter-spacing="1" fill="#FFFFFF" opacity="0.92">10</text>
	</g>
</svg>
