<svg width="160" height="160" viewBox="0 0 160 160" fill="none" xmlns="http://www.w3.org/2000/svg">
	<defs>
		<linearGradient id="paint0_linear_lang5" x1="30" y1="22" x2="130" y2="138" gradientUnits="userSpaceOnUse">
			<stop stop-color="#74E5FF" />
			<stop offset="1" stop-color="#2288FF" />
		</linearGradient>
		<linearGradient id="paint1_linear_lang5" x1="80" y1="52" x2="80" y2="124" gradientUnits="userSpaceOnUse">
			<stop stop-color="#F2FAFF" />
			<stop offset="1" stop-color="#C9E6FF" />
		</linearGradient>
		<radialGradient id="paint2_radial_lang5" cx="0" cy="0" r="1" gradientUnits="userSpaceOnUse" gradientTransform="translate(80 88) rotate(90) scale(36)">
			<stop stop-color="#FFFFFF" stop-opacity="0.95" />
			<stop offset="1" stop-color="#89CFFF" stop-opacity="0" />
		</radialGradient>
		<linearGradient id="paint3_linear_lang5" x1="80" y1="70" x2="80" y2="108" gradientUnits="userSpaceOnUse">
			<stop stop-color="#0F5EA1" />
			<stop offset="1" stop-color="#063169" />
		</linearGradient>
		<linearGradient id="paint4_linear_lang5" x1="80" y1="56" x2="80" y2="120" gradientUnits="userSpaceOnUse">
			<stop stop-color="#74E5FF" stop-opacity="0.8" />
			<stop offset="1" stop-color="#2288FF" stop-opacity="0.1" />
		</linearGradient>
	</defs>
	<rect x="16" y="16" width="128" height="128" rx="32" fill="url(#paint0_linear_lang5)" />
	<rect x="16" y="16" width="128" height="128" rx="32" stroke="rgba(255,255,255,0.4)" stroke-width="2" />
	<g transform="translate(0,-9)">
			<circle cx="80" cy="88" r="38" fill="url(#paint1_linear_lang5)" />
			<circle cx="80" cy="88" r="34" fill="url(#paint2_radial_lang5)" />
			<circle cx="80" cy="88" r="30" fill="url(#paint4_linear_lang5)" opacity="0.6" />
			<path d="M80 58C101.539 58 119 75.461 119 97" stroke="#5CC2FF" stroke-width="4.5" stroke-linecap="round" stroke-dasharray="12 10" />
			<path d="M80 58C58.461 58 41 75.461 41 97" stroke="#B7E2FF" stroke-width="4.5" stroke-linecap="round" stroke-dasharray="12 10" />
			<circle cx="80" cy="60" r="6" fill="#F2FAFF" stroke="#3FA8FF" stroke-width="2" />
			<circle cx="112" cy="86" r="6" fill="#F2FAFF" stroke="#3FA8FF" stroke-width="2" />
			<circle cx="97" cy="118" r="6" fill="#F2FAFF" stroke="#3FA8FF" stroke-width="2" />
			<circle cx="63" cy="118" r="6" fill="#F2FAFF" stroke="#3FA8FF" stroke-width="2" />
			<circle cx="48" cy="86" r="6" fill="#F2FAFF" stroke="#3FA8FF" stroke-width="2" />
			<path d="M80 68L94 86C99.5228 93.1497 96.4122 103 88 105.982L80 108.8L72 105.982C63.5878 103 60.4772 93.1497 66 86L80 68Z" fill="url(#paint3_linear_lang5)" />
			<path d="M80 74L90 86C93.6829 90.8412 91.6492 97.746 86 99.6904L80 101.8L74 99.6904C68.3508 97.746 66.3171 90.8412 70 86L80 74Z" fill="#0F4280" opacity="0.55" />
			<path d="M80 108.8L72 105.982C63.5878 103 60.4772 93.1497 66 86L70 80.5" stroke="#1C67B0" stroke-width="2.5" stroke-linecap="round" stroke-linejoin="round" opacity="0.5" />
			<path d="M80 108.8L88 105.982C96.4122 103 99.5228 93.1497 94 86L90 80.5" stroke="#45A4FF" stroke-width="2.5" stroke-linecap="round" stroke-linejoin="round" opacity="0.5" />
			<text x="80" y="93" text-anchor="middle" dominant-baseline="middle" font-family="'Inter', 'Segoe UI', sans-serif" font-size="42" font-weight="700" letter-spacing="1" fill="#03274F" opacity="0.3">5</text>
			<text x="80" y="92" text-anchor="middle" dominant-baseline="middle" font-family="'Inter', 'Segoe UI', sans-serif" font-size="42" font-weight="700" letter-spacing="1" fill="#FFFFFF" opacity="0.95">5</text>
		</g>
</svg>
